<svg width="31" height="31" viewBox="0 0 31 31" fill="none" xmlns="http://www.w3.org/2000/svg">
<path d="M6.45833 0C5.75195 0 5.16667 0.561875 5.16667 1.24V2.48H1.29167C0.542399 2.48 0 3.0007 0 3.72V8.06H29.7083V3.72C29.7083 3.0007 29.1659 2.48 28.4167 2.48H24.5417V1.24C24.5417 0.561875 23.9564 0 23.25 0H21.9583C21.252 0 20.6667 0.561875 20.6667 1.24V2.48H9.04167V1.24C9.04167 0.561875 8.45638 0 7.75 0H6.45833ZM6.45833 1.24H7.75V4.96H6.45833V1.24ZM21.9583 1.24H23.25V4.96H21.9583V1.24ZM0 9.3V28.52C0 29.2054 0.577718 29.76 1.29167 29.76H20.6843C21.7616 30.535 23.0936 31 24.5417 31C28.1038 31 31 28.2197 31 24.8C31 23.4098 30.5156 22.1311 29.7083 21.097V9.3H0ZM6.45833 13.02H9.6875V16.12H6.45833V13.02ZM10.9792 13.02H14.2083V16.12H10.9792V13.02ZM15.5 13.02H18.7292V16.12H15.5V13.02ZM20.0208 13.02H23.25V16.12H20.0208V13.02ZM6.45833 17.36H9.6875V20.46H6.45833V17.36ZM10.9792 17.36H14.2083V20.46H10.9792V17.36ZM15.5 17.36H18.7292V20.46H15.5V17.36ZM20.0208 17.36H23.25V18.7259C22.0063 18.9681 20.8937 19.5566 20.0208 20.3801V17.36ZM24.5417 19.84C27.3899 19.84 29.7083 22.0657 29.7083 24.8C29.7083 27.5343 27.3899 29.76 24.5417 29.76C21.6934 29.76 19.375 27.5343 19.375 24.8C19.375 22.0657 21.6934 19.84 24.5417 19.84ZM24.5417 21.1405C24.1532 21.1405 23.8958 21.39 23.8958 21.7605V24.18H21.3756C20.9896 24.18 20.7297 24.427 20.7297 24.8C20.7297 25.173 20.9896 25.42 21.3756 25.42H23.8958V27.8395C23.8958 28.21 24.1532 28.4595 24.5417 28.4595C24.9302 28.4595 25.1875 28.21 25.1875 27.8395V25.42H27.7078C28.0937 25.42 28.3536 25.173 28.3536 24.8C28.3536 24.427 28.0937 24.18 27.7078 24.18H25.1875V21.7605C25.1875 21.39 24.9302 21.1405 24.5417 21.1405ZM6.45833 21.7H9.6875V24.8H6.45833V21.7ZM10.9792 21.7H14.2083V24.8H10.9792V21.7ZM15.5 21.7H18.7292V22.1166C18.3205 22.9279 18.0833 23.8385 18.0833 24.8H15.5V21.7Z" fill="#006CEA"/>
</svg>
