<svg width="30" height="28" viewBox="0 0 30 28" fill="none" xmlns="http://www.w3.org/2000/svg">
<path d="M9.3 0C8.959 0 8.68 0.279 8.68 0.62V22.32C8.68 22.4502 8.67409 22.5799 8.66789 22.7039C8.57489 24.5949 7.76855 25.854 6.77035 26.66C6.70215 26.7158 6.63405 26.7655 6.55965 26.8089C5.75985 27.3979 4.86027 27.7082 4.10387 27.8322C4.48207 27.8942 4.73675 27.9 4.75535 27.9C4.82355 27.8938 4.8918 27.8941 4.96 27.8879V27.9H24.4028C24.6198 27.9 26.8023 27.8627 28.3275 26.3561C29.2761 25.4137 29.76 24.1303 29.76 22.5307V0.62C29.76 0.279 29.481 0 29.14 0H9.3ZM12.4 3.1H26.04C26.381 3.1 26.66 3.379 26.66 3.72C26.66 4.061 26.381 4.34 26.04 4.34H12.4C12.059 4.34 11.78 4.061 11.78 3.72C11.78 3.379 12.059 3.1 12.4 3.1ZM1.75465 5.58C0.272848 5.58 0.0432547 6.81981 0.00605469 7.24141C0.00605469 7.26621 0 7.29062 0 7.30922V22.5622C0 22.6986 0.00590944 22.834 0.0121094 22.9642C0.0183094 23.0882 0.0311937 23.2123 0.0435937 23.3239C0.421794 26.5355 3.18007 26.66 3.48387 26.66C3.52107 26.66 3.74514 26.6471 4.06754 26.5789C5.17114 26.3433 7.44 25.4696 7.44 22.32V5.58H5.6357H4.3957C4.4081 5.5924 4.42099 5.60514 4.42719 5.61754C4.72479 6.04534 4.89844 6.55974 4.94184 7.12394C4.95424 7.22315 4.96 7.32186 4.96 7.40246V21.7061C4.96 22.0533 4.681 22.3261 4.34 22.3261C3.999 22.3261 3.72 22.0533 3.72 21.7061V7.40246C3.72 7.11106 3.6642 6.69038 3.41 6.33078C3.1744 5.98978 2.83393 5.76653 2.40613 5.66113C2.20773 5.60533 1.99025 5.58 1.75465 5.58ZM11.78 6.2H26.66V13.02H11.78V6.2ZM13.02 14.88H17.36C17.701 14.88 17.98 15.159 17.98 15.5C17.98 15.841 17.701 16.12 17.36 16.12H13.02C12.679 16.12 12.4 15.841 12.4 15.5C12.4 15.159 12.679 14.88 13.02 14.88ZM21.08 14.88H25.42C25.761 14.88 26.04 15.159 26.04 15.5C26.04 15.841 25.761 16.12 25.42 16.12H21.08C20.739 16.12 20.46 15.841 20.46 15.5C20.46 15.159 20.739 14.88 21.08 14.88ZM13.02 17.36H17.36C17.701 17.36 17.98 17.639 17.98 17.98C17.98 18.321 17.701 18.6 17.36 18.6H13.02C12.679 18.6 12.4 18.321 12.4 17.98C12.4 17.639 12.679 17.36 13.02 17.36ZM21.08 17.36H25.42C25.761 17.36 26.04 17.639 26.04 17.98C26.04 18.321 25.761 18.6 25.42 18.6H21.08C20.739 18.6 20.46 18.321 20.46 17.98C20.46 17.639 20.739 17.36 21.08 17.36ZM13.02 19.84H17.36C17.701 19.84 17.98 20.119 17.98 20.46C17.98 20.801 17.701 21.08 17.36 21.08H13.02C12.679 21.08 12.4 20.801 12.4 20.46C12.4 20.119 12.679 19.84 13.02 19.84ZM21.08 19.84H25.42C25.761 19.84 26.04 20.119 26.04 20.46C26.04 20.801 25.761 21.08 25.42 21.08H21.08C20.739 21.08 20.46 20.801 20.46 20.46C20.46 20.119 20.739 19.84 21.08 19.84ZM13.02 22.32H17.36C17.701 22.32 17.98 22.599 17.98 22.94C17.98 23.281 17.701 23.56 17.36 23.56H13.02C12.679 23.56 12.4 23.281 12.4 22.94C12.4 22.599 12.679 22.32 13.02 22.32ZM21.08 22.32H25.42C25.761 22.32 26.04 22.599 26.04 22.94C26.04 23.281 25.761 23.56 25.42 23.56H21.08C20.739 23.56 20.46 23.281 20.46 22.94C20.46 22.599 20.739 22.32 21.08 22.32Z" fill="#008951"/>
</svg>
