<svg width="30" height="29" viewBox="0 0 30 29" fill="none" xmlns="http://www.w3.org/2000/svg">
<path d="M11.4062 14.4998C11.4063 15.4212 11.7849 16.3048 12.4588 16.9563C13.1328 17.6078 14.0469 17.9738 15 17.9738C15.9531 17.9738 16.8672 17.6078 17.5412 16.9563C18.2151 16.3048 18.5938 15.4212 18.5938 14.4998C18.5938 13.5785 18.2151 12.6949 17.5412 12.0434C16.8672 11.3919 15.9531 11.0259 15 11.0259C14.0469 11.0259 13.1328 11.3919 12.4588 12.0434C11.7849 12.6949 11.4063 13.5785 11.4062 14.4998Z" stroke="#0063F7" stroke-width="1.5"/>
<path d="M17.1151 3.09621C16.6747 2.91992 16.1166 2.91992 15.0003 2.91992C13.8839 2.91992 13.3258 2.91992 12.8855 3.09621C12.2985 3.33127 11.8321 3.78214 11.5889 4.34961C11.4779 4.60866 11.4344 4.90992 11.4174 5.34937C11.3925 5.99516 11.0499 6.59293 10.4709 6.91605C9.89193 7.23916 9.1851 7.2271 8.59405 6.92512C8.19186 6.71962 7.90024 6.60535 7.61265 6.56876C6.98267 6.48858 6.34554 6.6536 5.84144 7.02753C5.46335 7.30797 5.18427 7.77524 4.62611 8.70977C4.06796 9.64431 3.78888 10.1116 3.72667 10.5683C3.64374 11.1773 3.81445 11.7932 4.20127 12.2805C4.37782 12.503 4.62596 12.6898 5.01108 12.9238C5.57722 13.2677 5.9415 13.8535 5.94146 14.4998C5.94143 15.1461 5.57716 15.7318 5.01107 16.0756C4.6259 16.3096 4.37773 16.4966 4.20115 16.7191C3.81433 17.2063 3.64362 17.8222 3.72656 18.4311C3.78876 18.8879 4.06784 19.3552 4.62599 20.2897C5.18416 21.2242 5.46324 21.6916 5.84132 21.9719C6.34542 22.3458 6.98255 22.5108 7.61253 22.4307C7.90009 22.3941 8.1917 22.2798 8.59387 22.0744C9.18495 21.7724 9.89183 21.7604 10.4708 22.0834C11.0498 22.4066 11.3925 23.0044 11.4174 23.6503C11.4345 24.0896 11.4779 24.391 11.5889 24.65C11.8321 25.2174 12.2985 25.6683 12.8855 25.9034C13.3258 26.0796 13.8839 26.0796 15.0003 26.0796C16.1166 26.0796 16.6747 26.0796 17.1151 25.9034C17.7021 25.6683 18.1685 25.2174 18.4116 24.65C18.5226 24.391 18.5661 24.0896 18.5831 23.6502C18.608 23.0044 18.9506 22.4066 19.5296 22.0834C20.1086 21.7602 20.8154 21.7724 21.4066 22.0744C21.8088 22.2798 22.1003 22.394 22.3878 22.4306C23.0178 22.5108 23.655 22.3458 24.1591 21.9719C24.5371 21.6915 24.8162 21.2242 25.3744 20.2896C25.9326 19.3551 26.2117 18.8879 26.2739 18.4311C26.3568 17.8222 26.1861 17.2062 25.7993 16.7189C25.6227 16.4965 25.3745 16.3095 24.9893 16.0756C24.4233 15.7318 24.059 15.1459 24.059 14.4997C24.059 13.8534 24.4233 13.2678 24.9893 12.924C25.3746 12.69 25.6228 12.5031 25.7994 12.2805C26.1862 11.7933 26.3569 11.1774 26.274 10.5684C26.2118 10.1117 25.9327 9.64438 25.3745 8.70985C24.8164 7.77532 24.5373 7.30805 24.1592 7.02761C23.6551 6.65369 23.0179 6.48866 22.3879 6.56884C22.1004 6.60543 21.8089 6.71969 21.4066 6.92516C20.8156 7.22716 20.1087 7.23923 19.5297 6.91609C18.9506 6.59295 18.608 5.99514 18.5831 5.34931C18.5661 4.9099 18.5226 4.60865 18.4116 4.34961C18.1685 3.78214 17.7021 3.33127 17.1151 3.09621Z" stroke="black" stroke-opacity="0.5" stroke-width="1.5"/>
</svg>
